<svg xmlns="http://www.w3.org/2000/svg" viewBox="0 0 275.78 53.42"><defs><style>.cls-1{fill:#f98436;}</style></defs><g id="Layer_2" data-name="Layer 2"><g id="Layer_1-2" data-name="Layer 1"><path class="cls-1" d="M87.51,22.13a16.88,16.88,0,0,1,5.14,12.41A16.88,16.88,0,0,1,87.51,47a17.58,17.58,0,0,1-24.82,0,16.91,16.91,0,0,1-5.13-12.41A17.53,17.53,0,0,1,75.1,17,16.9,16.9,0,0,1,87.51,22.13Zm-12.41,2A10.41,10.41,0,0,0,64.66,34.5a10.43,10.43,0,1,0,20.85,0A10.38,10.38,0,0,0,75.1,24.1Z"/><path class="cls-1" d="M134.9,34.71A17.55,17.55,0,0,1,105,47a16.91,16.91,0,0,1-5.13-12.41A16.91,16.91,0,0,1,105,22.13a17.57,17.57,0,0,1,22.78-1.76V10a3.59,3.59,0,0,1,7.17,0Zm-7.13.57a4.68,4.68,0,0,1,0-.64V33.31A10.43,10.43,0,0,0,110,27.19a10.47,10.47,0,0,0,0,14.75,10.43,10.43,0,0,0,14.74,0A9.79,9.79,0,0,0,127.77,35.28Z"/><path class="cls-1" d="M177.16,48.63a3.1,3.1,0,0,1-1,2.75,4.47,4.47,0,0,1-2.53.7,4.42,4.42,0,0,1-2.53-.7A3,3,0,0,1,170,48.71,17.6,17.6,0,0,1,147.21,47a16.91,16.91,0,0,1-5.13-12.41,16.91,16.91,0,0,1,5.13-12.41,17.55,17.55,0,0,1,24.82,0,16.93,16.93,0,0,1,5.13,12.23ZM167,27.15a10.41,10.41,0,0,0-17.79,7.35A10.42,10.42,0,0,0,167,41.88a10,10,0,0,0,3-6.11V34.43a4.44,4.44,0,0,1,0-.63A9.81,9.81,0,0,0,167,27.15Z"/><path class="cls-1" d="M187.92,13.48a3.43,3.43,0,0,1-2.53-1.06,3.55,3.55,0,0,1,0-5.06,3.59,3.59,0,0,1,6.12,2.53,3.45,3.45,0,0,1-1.06,2.53A3.43,3.43,0,0,1,187.92,13.48Zm0,38.6a3.6,3.6,0,0,1-3.59-3.59V20.37a3.59,3.59,0,0,1,7.18,0V48.49a3.6,3.6,0,0,1-3.59,3.59Z"/><path class="cls-1" d="M198.43,10a3.59,3.59,0,0,1,7.17,0V20.37a17.59,17.59,0,0,1,22.79,1.76,16.91,16.91,0,0,1,5.13,12.41,17.55,17.55,0,0,1-35.09.17Zm10.16,31.89a10.41,10.41,0,0,0,17.79-7.35,10.43,10.43,0,0,0-20.78-1.26v1.33c0,.21,0,.42,0,.64A9.82,9.82,0,0,0,208.59,41.92Z"/><path class="cls-1" d="M275.78,48.63a3.1,3.1,0,0,1-1.06,2.75,4.92,4.92,0,0,1-5.06,0,3,3,0,0,1-1.06-2.67A17.6,17.6,0,0,1,245.82,47a16.91,16.91,0,0,1-5.13-12.41,16.91,16.91,0,0,1,5.13-12.41,17.55,17.55,0,0,1,24.82,0,16.9,16.9,0,0,1,5.14,12.23ZM265.62,27.15a10.41,10.41,0,0,0-17.79,7.35,10.42,10.42,0,0,0,17.79,7.38,9.94,9.94,0,0,0,3-6.11V34.43c0-.21,0-.42,0-.63A9.84,9.84,0,0,0,265.62,27.15Z"/><path class="cls-1" d="M4.11,45.46l.41.54c.43.51.9,1,1.39,1.51a19.29,19.29,0,0,0,14.28,5.91c.58,0,1.2,0,1.88-.09h.19l.17,0,.28,0,1.17-.16.76-.15.95-.23.82-.23.6-.21.17-.06a20.05,20.05,0,0,0,2.21-1l.09,0c.31-.16.66-.37,1-.59l.42-.25c.34-.22.68-.45,1-.69l.15-.11,2.4-1.79,0,3c0,.75.11,1.71.64,2.06a4.56,4.56,0,0,0,4.59,0c.55-.37.64-1.5.64-2.14V2.93A2.74,2.74,0,0,0,39.51.87h0a2.92,2.92,0,0,0-4.14,0,2.76,2.76,0,0,0-.86,2.07V18.7l-2.59-1.92c-.33-.24-.67-.48-1-.7l-.42-.25c-.35-.21-.7-.42-1.06-.61a18.58,18.58,0,0,0-2.25-1L27,14.17l-.58-.2-.79-.22c-.35-.1-.66-.17-1-.24s-.51-.11-.77-.15-.76-.12-1.15-.16l-.29,0-.17,0h-.19a21.58,21.58,0,0,0-3.77,0l-.4.05-.24,0c-.39,0-.78.09-1.16.16s-.51.09-.76.15-.64.14-1,.23L14,14l-.61.21-.17.06a17.63,17.63,0,0,0-2.18.95l-.11.05c-.32.17-.67.38-1,.59l-.15.09-.27.16c-.34.22-.68.46-1,.7l-.15.11-2.4,1.78,0-3V2.93A2.77,2.77,0,0,0,5,.86,2.76,2.76,0,0,0,2.93,0,2.76,2.76,0,0,0,.86.86,2.76,2.76,0,0,0,0,2.93V33.45c0,.18,0,.38,0,.57l0,.73c0,.21,0,.43,0,.64s0,.34.06.5l.09.6c0,.3.08.6.13.88,0,.12.06.23.08.34l.12.47c.08.36.16.73.27,1.08l.09.25c0,.1.07.19.1.29.16.48.3.88.45,1.26a2.4,2.4,0,0,1,.11.23l.14.27c.21.47.38.85.58,1.21a2.4,2.4,0,0,0,.16.27l.18.29.11.2c.18.3.35.6.55.89s.22.3.34.44Zm1.76-12.1V32.2A13.88,13.88,0,0,1,10,23.09a13.84,13.84,0,0,1,10.17-4.23,13.86,13.86,0,0,1,10.17,4.23,13.93,13.93,0,0,1,4.15,9.11v2.14a14.18,14.18,0,0,1-1,4.33c0,.14-.11.26-.16.39s-.2.42-.31.64-.26.5-.4.73l-.07.12a15.25,15.25,0,0,1-2.22,2.82,14,14,0,0,1-10.19,4.22A13.87,13.87,0,0,1,10,43.37a13.94,13.94,0,0,1-4.17-9.6V33.7Z"/><path class="cls-1" d="M25,28.88a1.54,1.54,0,0,0-1.54,1.54v2.14a1.54,1.54,0,0,0,3.08,0V30.42A1.54,1.54,0,0,0,25,28.88Z"/><path class="cls-1" d="M15.39,28.88a1.54,1.54,0,0,0-1.54,1.54v2.14a1.54,1.54,0,1,0,3.08,0V30.42A1.54,1.54,0,0,0,15.39,28.88Z"/></g></g></svg>